<svg width="480" height="800" viewBox="0 0 480 800" fill="none" xmlns="http://www.w3.org/2000/svg">
<g clip-path="url(#clip0_5103_84)">
<path d="M-263.047 661.709C-263.056 665.19 -265.738 668.007 -269.039 668C-272.339 667.994 -275.008 665.167 -275 661.686C-274.992 658.205 -272.309 655.388 -269.009 655.395C-265.708 655.401 -263.039 658.228 -263.047 661.709Z" fill="white"/>
<path d="M-73.6417 83.7814C-73.6514 87.8425 -76.7808 91.1284 -80.6315 91.1209C-84.4822 91.1133 -87.596 87.8151 -87.5863 83.7541C-87.5767 79.693 -84.4472 76.407 -80.5965 76.4146C-76.7458 76.4222 -73.632 79.7204 -73.6417 83.7814Z" fill="white"/>
<path d="M24.1132 321.459C24.1036 325.52 20.9741 328.806 17.1234 328.798C13.2727 328.791 10.1589 325.492 10.1686 321.431C10.1783 317.37 13.3077 314.084 17.1584 314.092C21.0091 314.099 24.1229 317.398 24.1132 321.459Z" fill="white"/>
<path d="M446.482 252C446.474 255.481 443.791 258.297 440.491 258.291C437.19 258.284 434.521 255.457 434.529 251.977C434.538 248.496 437.22 245.679 440.521 245.686C443.821 245.692 446.49 248.519 446.482 252Z" fill="white"/>
<path d="M115.437 439.948C115.427 444.299 112.074 447.82 107.948 447.812C103.822 447.804 100.486 444.27 100.496 439.919C100.507 435.568 103.86 432.047 107.985 432.055C112.111 432.063 115.447 435.597 115.437 439.948Z" fill="white"/>
<path d="M157.749 455.26C157.74 459.031 154.834 462.082 151.259 462.075C147.683 462.068 144.792 459.005 144.801 455.234C144.81 451.464 147.716 448.412 151.291 448.419C154.867 448.426 157.758 451.489 157.749 455.26Z" fill="white"/>
<path d="M276.701 95.3144C276.693 98.7953 274.011 101.612 270.71 101.605C267.409 101.599 264.741 98.7718 264.749 95.291C264.757 91.8101 267.44 88.9935 270.74 89C274.041 89.0065 276.71 91.8335 276.701 95.3144Z" fill="white"/>
<path d="M325.557 301.5C325.548 305.271 322.642 308.322 319.066 308.315C315.49 308.308 312.599 305.246 312.608 301.475C312.617 297.704 315.523 294.652 319.098 294.659C322.674 294.666 325.565 297.729 325.557 301.5Z" fill="white"/>
<path d="M353.584 240.5C353.575 244.271 350.669 247.322 347.094 247.315C343.518 247.308 340.626 244.246 340.635 240.475C340.644 236.704 343.55 233.652 347.126 233.659C350.702 233.666 353.593 236.729 353.584 240.5Z" fill="white"/>
<path d="M133.986 160.081C133.976 164.142 130.847 167.428 126.996 167.42C123.146 167.413 120.032 164.114 120.041 160.053C120.051 155.992 123.181 152.706 127.031 152.714C130.882 152.721 133.996 156.02 133.986 160.081Z" fill="white"/>
<path d="M272.518 160.081C272.509 163.852 269.603 166.903 266.028 166.896C262.452 166.889 259.56 163.826 259.569 160.055C259.578 156.284 262.484 153.233 266.06 153.24C269.636 153.247 272.527 156.31 272.518 160.081Z" fill="white"/>
<path d="M271.936 49C271.928 52.4809 269.245 55.2974 265.945 55.2909C262.644 55.2845 259.975 52.4574 259.984 48.9765C259.992 45.4956 262.674 42.6791 265.975 42.6856C269.275 42.692 271.944 45.5191 271.936 49Z" fill="white"/>
<path d="M264.779 181.344C264.772 184.245 262.537 186.592 259.786 186.586C257.036 186.581 254.812 184.225 254.818 181.324C254.825 178.424 257.061 176.077 259.811 176.082C262.562 176.087 264.786 178.443 264.779 181.344Z" fill="white"/>
<path d="M26.3566 205.66C26.3469 209.721 23.2175 213.007 19.3668 213C15.5161 212.992 12.4023 209.694 12.412 205.633C12.4217 201.572 15.5511 198.286 19.4018 198.294C23.2525 198.301 26.3663 201.599 26.3566 205.66Z" fill="white"/>
<path d="M339.674 361.178C339.665 364.949 336.759 368 333.184 367.993C329.608 367.986 326.717 364.923 326.726 361.152C326.735 357.381 329.641 354.33 333.216 354.337C336.792 354.344 339.683 357.407 339.674 361.178Z" fill="white"/>
<path d="M325.321 451.489C325.312 455.26 322.406 458.311 318.831 458.304C315.255 458.297 312.364 455.235 312.373 451.464C312.382 447.693 315.287 444.641 318.863 444.648C322.439 444.655 325.33 447.718 325.321 451.489Z" fill="white"/>
</g>
<defs>
<clipPath id="clip0_5103_84">
<rect width="480" height="800" fill="white"/>
</clipPath>
</defs>
</svg>
