<svg width="480" height="800" viewBox="0 0 480 800" fill="none" xmlns="http://www.w3.org/2000/svg">
<g clip-path="url(#clip0_3361_19)">
<g filter="url(#filter0_f_3361_19)">
<ellipse cx="444.324" cy="178.268" rx="16.8475" ry="17.0777" fill="#D9D9D9"/>
</g>
<line y1="-0.5" x2="80.1017" y2="-0.5" transform="matrix(0.34642 -0.938079 0.941464 0.337113 452.251 163.142)" stroke="white"/>
<line y1="-0.5" x2="95.4929" y2="-0.5" transform="matrix(-0.840623 0.541621 -0.553443 -0.832887 431.439 185.587)" stroke="white"/>
<line y1="-0.5" x2="31.2911" y2="-0.5" transform="matrix(0.696769 0.717295 -0.727942 0.685639 458.197 187.539)" stroke="white"/>
<g filter="url(#filter1_f_3361_19)">
<ellipse cx="263.955" cy="561.783" rx="16.8475" ry="16.1018" fill="#D9D9D9"/>
</g>
<line y1="-0.5" x2="148.104" y2="-0.5" transform="matrix(0.100372 0.99495 -0.99525 0.0973532 262.964 575.934)" stroke="white"/>
<line y1="-0.5" x2="196.372" y2="-0.5" transform="matrix(-0.56523 0.824933 -0.83293 -0.553378 254.045 573.006)" stroke="white"/>
<line y1="-0.5" x2="104.419" y2="-0.5" transform="matrix(0.607417 0.794383 -0.803296 0.59558 271.884 573.006)" stroke="white"/>
<g filter="url(#filter2_f_3361_19)">
<ellipse cx="159.401" cy="267.072" rx="18.3341" ry="17.0777" fill="#D9D9D9"/>
</g>
<line y1="-0.5" x2="109.839" y2="-0.5" transform="matrix(0.775943 -0.630803 0.642477 0.766305 171.79 254.874)" stroke="white"/>
<line y1="-0.5" x2="43.8775" y2="-0.5" transform="matrix(0.993798 0.111204 -0.114641 0.993407 177.736 265.608)" stroke="white"/>
<line y1="-0.5" x2="76.7432" y2="-0.5" transform="matrix(-0.581112 -0.813824 0.822169 -0.569243 152.96 249.995)" stroke="white"/>
<line y1="-0.5" x2="105.873" y2="-0.5" transform="matrix(-0.982861 -0.184347 0.189915 -0.9818 142.058 258.777)" stroke="white"/>
<line y1="-0.5" x2="100.229" y2="-0.5" transform="matrix(-0.978874 0.204463 -0.210587 -0.977575 141.067 266.584)" stroke="white"/>
<line y1="-0.5" x2="130.239" y2="-0.5" transform="matrix(-0.388076 0.921627 -0.925807 -0.377998 152.96 284.15)" stroke="white"/>
</g>
<defs>
<filter id="filter0_f_3361_19" x="423.476" y="157.19" width="41.6948" height="42.1553" filterUnits="userSpaceOnUse" color-interpolation-filters="sRGB">
<feFlood flood-opacity="0" result="BackgroundImageFix"/>
<feBlend mode="normal" in="SourceGraphic" in2="BackgroundImageFix" result="shape"/>
<feGaussianBlur stdDeviation="2" result="effect1_foregroundBlur_3361_19"/>
</filter>
<filter id="filter1_f_3361_19" x="243.108" y="541.682" width="41.6948" height="40.2036" filterUnits="userSpaceOnUse" color-interpolation-filters="sRGB">
<feFlood flood-opacity="0" result="BackgroundImageFix"/>
<feBlend mode="normal" in="SourceGraphic" in2="BackgroundImageFix" result="shape"/>
<feGaussianBlur stdDeviation="2" result="effect1_foregroundBlur_3361_19"/>
</filter>
<filter id="filter2_f_3361_19" x="137.067" y="245.995" width="44.668" height="42.1553" filterUnits="userSpaceOnUse" color-interpolation-filters="sRGB">
<feFlood flood-opacity="0" result="BackgroundImageFix"/>
<feBlend mode="normal" in="SourceGraphic" in2="BackgroundImageFix" result="shape"/>
<feGaussianBlur stdDeviation="2" result="effect1_foregroundBlur_3361_19"/>
</filter>
<clipPath id="clip0_3361_19">
<rect width="480" height="800" fill="white"/>
</clipPath>
</defs>
</svg>
