<svg width="1200" height="800" viewBox="0 0 1200 800" fill="none" xmlns="http://www.w3.org/2000/svg">
<path d="M479.554 652.836C479.546 656.259 476.918 659.029 473.683 659.023C470.449 659.017 467.834 656.236 467.842 652.813C467.85 649.389 470.478 646.619 473.713 646.626C476.947 646.632 479.563 649.412 479.554 652.836Z" fill="white"/>
<path d="M660.815 88.5193C660.806 92.5133 657.739 95.7451 653.966 95.7377C650.192 95.7303 647.141 92.4864 647.15 88.4924C647.16 84.4983 650.226 81.2665 654 81.274C657.773 81.2814 660.825 84.5252 660.815 88.5193Z" fill="white"/>
<path d="M755.111 318.175C755.101 322.169 752.035 325.401 748.261 325.393C744.488 325.386 741.437 322.142 741.446 318.148C741.456 314.154 744.522 310.922 748.296 310.929C752.069 310.937 755.12 314.181 755.111 318.175Z" fill="white"/>
<path d="M1169 249.862C1168.99 253.285 1166.36 256.055 1163.13 256.049C1159.9 256.043 1157.28 253.262 1157.29 249.839C1157.3 246.415 1159.93 243.645 1163.16 243.652C1166.39 243.658 1169.01 246.438 1169 249.862Z" fill="white"/>
<path d="M844.602 434.71C844.591 438.989 841.306 442.452 837.263 442.444C833.22 442.436 829.951 438.96 829.961 434.681C829.971 430.402 833.257 426.939 837.3 426.947C841.342 426.955 844.612 430.43 844.602 434.71Z" fill="white"/>
<path d="M886.065 449.769C886.056 453.478 883.208 456.479 879.704 456.472C876.201 456.465 873.367 453.453 873.376 449.744C873.385 446.035 876.232 443.034 879.736 443.041C883.24 443.048 886.073 446.06 886.065 449.769Z" fill="white"/>
<path d="M1002.63 95.7607C1002.62 99.1842 999.992 101.954 996.758 101.948C993.524 101.942 990.908 99.1611 990.917 95.7377C990.925 92.3142 993.553 89.5441 996.788 89.5505C1000.02 89.5568 1002.64 92.3372 1002.63 95.7607Z" fill="white"/>
<path d="M1050.5 298.545C1050.49 302.254 1047.65 305.255 1044.14 305.248C1040.64 305.241 1037.81 302.229 1037.81 298.52C1037.82 294.812 1040.67 291.811 1044.18 291.817C1047.68 291.824 1050.51 294.837 1050.5 298.545Z" fill="white"/>
<path d="M1077.97 238.551C1077.96 242.26 1075.11 245.261 1071.61 245.254C1068.1 245.247 1065.27 242.235 1065.28 238.526C1065.29 234.818 1068.14 231.817 1071.64 231.824C1075.14 231.831 1077.98 234.843 1077.97 238.551Z" fill="white"/>
<path d="M862.778 159.459C862.769 163.453 859.702 166.685 855.929 166.677C852.155 166.67 849.104 163.426 849.114 159.432C849.123 155.438 852.19 152.206 855.963 152.213C859.737 152.221 862.788 155.465 862.778 159.459Z" fill="white"/>
<path d="M998.53 159.459C998.521 163.168 995.673 166.168 992.169 166.162C988.666 166.155 985.832 163.143 985.841 159.434C985.85 155.725 988.697 152.724 992.201 152.731C995.705 152.738 998.539 155.75 998.53 159.459Z" fill="white"/>
<path d="M997.959 50.2103C997.951 53.6337 995.323 56.4038 992.089 56.3975C988.854 56.3911 986.239 53.6107 986.247 50.1872C986.255 46.7637 988.884 43.9936 992.118 44C995.352 44.0064 997.968 46.7868 997.959 50.2103Z" fill="white"/>
<path d="M990.946 180.371C990.939 183.224 988.749 185.533 986.053 185.527C983.358 185.522 981.179 183.205 981.185 180.352C981.192 177.499 983.383 175.191 986.078 175.196C988.773 175.201 990.953 177.518 990.946 180.371Z" fill="white"/>
<path d="M757.309 204.287C757.3 208.281 754.233 211.512 750.46 211.505C746.686 211.498 743.635 208.254 743.645 204.26C743.654 200.266 746.721 197.034 750.494 197.041C754.267 197.049 757.319 200.293 757.309 204.287Z" fill="white"/>
<path d="M1064.34 357.239C1064.33 360.947 1061.48 363.948 1057.98 363.941C1054.47 363.935 1051.64 360.922 1051.65 357.214C1051.66 353.505 1054.51 350.504 1058.01 350.511C1061.51 350.518 1064.35 353.53 1064.34 357.239Z" fill="white"/>
<path d="M1050.27 446.06C1050.26 449.769 1047.42 452.77 1043.91 452.763C1040.41 452.756 1037.58 449.744 1037.58 446.035C1037.59 442.326 1040.44 439.325 1043.94 439.332C1047.45 439.339 1050.28 442.351 1050.27 446.06Z" fill="white"/>
</svg>
